<svg xmlns="http://www.w3.org/2000/svg" width="64" height="64" viewBox="0 0 64 64" shape-rendering="crispEdges"><!-- Pixtee ball green, original editable review source, no physics changes --><ellipse cx="32" cy="42" rx="9" ry="4" fill="#204d29" opacity=".55"/><path d="M27 24h10v2h4v3h2v9h-2v3h-5v2h-9v-2h-5v-3h-2v-9h2v-3h5z" fill="#273c42"/><path d="M27 26h10v2h4v10h-4v3H27v-3h-4V28h4z" fill="#e8e9de"/><path d="M27 27h9v3h-9z" fill="#ffffff"/><path d="M25 31h3v3h-3zm8 5h3v2h-3zm4-5h2v2h-2zm-7 7h2v2h-2z" fill="#c2c9c1"/><path d="M25 36h2v2h-2z" fill="#9baea9"/></svg>